# xmcd
#
# Track frame offsets:
#	150
#	14623
#	27599
#	44814
#	58866
#	78401
#	95984
#	106119
#	120795
#	130383
#	146985
#	160055
#	171894
#	182034
#	197581
#	198562
#
# Disc length: 2891 seconds
#
# Revision: 0
# Processed by: cddbd v1.5.1PL2 Copyright (c) Steve Scherf et al.
# Submitted via: dBpowerAMP V4.0
#
DISCID=eb0b4910
DTITLE=Cisco Jim - Rolling Along
DYEAR=1900
DGENRE=Western
TTITLE0=Rollin Along
TTITLE1=Blue Mountain
TTITLE2=Home On The Range
TTITLE3=Chopo
TTITLE4=I Ride An Old Paint
TTITLE5=When The Work's All Done This Fall
TTITLE6=Buffalo Gals
TTITLE7=Along the Colorado Trail
TTITLE8=The Girl I Left Behind
TTITLE9=The Cowboy's Dream
TTITLE10=Tumbling Tumbleweeds
TTITLE11=The Cowboy Trail
TTITLE12=Cruz De Recuerdo
TTITLE13=Master's Call
TTITLE14=Cowboy Blessing
TTITLE15=The Last Roundup
EXTD=
EXTT0=
EXTT1=
EXTT2=
EXTT3=
EXTT4=
EXTT5=
EXTT6=
EXTT7=
EXTT8=
EXTT9=
EXTT10=
EXTT11=
EXTT12=
EXTT13=
EXTT14=
EXTT15=
PLAYORDER=
